<svg width="21" height="24" viewBox="0 0 21 24" fill="none" xmlns="http://www.w3.org/2000/svg">
<path d="M11.9786 0.528287C11.5616 0.18667 11.0391 0 10.5 0C9.96089 0 9.43841 0.18667 9.02135 0.528287L0.883858 7.16305C0.606968 7.39006 0.384022 7.6758 0.231157 7.99958C0.0782928 8.32336 -0.000663757 8.67708 5.72205e-06 9.03514V21.07C5.72205e-06 22.3961 1.05742 23.4708 2.3625 23.4708H5.5125C6.81759 23.4708 7.875 22.3961 7.875 21.07V15.287C7.875 14.8453 8.22706 14.4871 8.6625 14.4871H12.3375C12.7723 14.4871 13.125 14.8453 13.125 15.287V21.0706C13.125 22.3967 14.1824 23.4714 15.4875 23.4714H18.6375C19.942 23.4708 21 22.3961 21 21.07V9.03514C21.0007 8.67708 20.9217 8.32336 20.7688 7.99958C20.616 7.6758 20.393 7.39006 20.1161 7.16305L11.9786 0.528287ZM10.0071 1.77655C10.1462 1.66275 10.3203 1.60058 10.5 1.60058C10.6797 1.60058 10.8538 1.66275 10.9929 1.77655L19.1304 8.4107C19.2227 8.48643 19.297 8.58175 19.348 8.68974C19.3989 8.79774 19.4253 8.91572 19.425 9.03514V21.07C19.425 21.5122 19.0729 21.8705 18.6375 21.8705H15.4875C15.0527 21.8705 14.7 21.5122 14.7 21.07V15.287C14.7 13.9615 13.642 12.8868 12.3375 12.8868H8.6625C7.35803 12.8868 6.3 13.9615 6.3 15.287V21.0706C6.3 21.5128 5.94794 21.8711 5.5125 21.8711H2.3625C1.92768 21.8711 1.575 21.5128 1.575 21.0706V9.03514C1.57467 8.9158 1.60093 8.79788 1.6519 8.68997C1.70286 8.58206 1.77724 8.48687 1.86962 8.41131L10.0071 1.77593V1.77655Z" fill="#000000"/>
</svg>
