<svg width="21" height="21" viewBox="0 0 21 21" fill="none" xmlns="http://www.w3.org/2000/svg">
<path d="M10.5 4.5C11.2417 4.5 11.9667 4.71993 12.5834 5.13199C13.2001 5.54404 13.6807 6.12971 13.9645 6.81494C14.2484 7.50016 14.3226 8.25416 14.1779 8.98159C14.0332 9.70902 13.6761 10.3772 13.1516 10.9017C12.6272 11.4261 11.959 11.7833 11.2316 11.9279C10.5042 12.0726 9.75016 11.9984 9.06493 11.7145C8.37971 11.4307 7.79404 10.9501 7.38199 10.3334C6.96993 9.7167 6.75 8.99168 6.75 8.25C6.75 7.25544 7.14509 6.30161 7.84835 5.59835C8.55161 4.89509 9.50544 4.5 10.5 4.5ZM10.5 10.5C10.945 10.5 11.38 10.368 11.75 10.1208C12.12 9.87357 12.4084 9.52217 12.5787 9.11104C12.749 8.6999 12.7936 8.2475 12.7068 7.81105C12.6199 7.37459 12.4057 6.97368 12.091 6.65901C11.7763 6.34434 11.3754 6.13005 10.939 6.04323C10.5025 5.95642 10.0501 6.00097 9.63896 6.17127C9.22783 6.34157 8.87642 6.62996 8.62919 6.99997C8.38196 7.36998 8.25 7.80499 8.25 8.25C8.25059 8.84655 8.48784 9.4185 8.90967 9.84033C9.33149 10.2622 9.90344 10.4994 10.5 10.5Z" fill="#000000"/>
<path d="M10.5 0C12.5767 0 14.6068 0.615814 16.3335 1.76957C18.0602 2.92332 19.406 4.5632 20.2007 6.48182C20.9955 8.40045 21.2034 10.5116 20.7982 12.5484C20.3931 14.5852 19.3931 16.4562 17.9246 17.9246C16.4562 19.3931 14.5852 20.3931 12.5484 20.7982C10.5116 21.2034 8.40044 20.9955 6.48182 20.2007C4.56319 19.406 2.92332 18.0602 1.76956 16.3335C0.615808 14.6068 -3.8147e-06 12.5767 -3.8147e-06 10.5C0.00317192 7.7162 1.11044 5.04733 3.07888 3.07889C5.04733 1.11044 7.7162 0.00317604 10.5 0ZM15 18.2828V17.25C14.9994 16.6534 14.7622 16.0815 14.3403 15.6597C13.9185 15.2378 13.3465 15.0006 12.75 15H8.25C7.65344 15.0006 7.08149 15.2378 6.65966 15.6597C6.23783 16.0815 6.00059 16.6534 6 17.25V18.2828C7.36562 19.0802 8.91861 19.5004 10.5 19.5004C12.0814 19.5004 13.6344 19.0802 15 18.2828ZM4.50599 17.1945C4.52094 16.2107 4.92175 15.2722 5.62206 14.5812C6.32237 13.8901 7.26613 13.5019 8.25 13.5H12.75C13.7339 13.5019 14.6776 13.8901 15.3779 14.5812C16.0782 15.2722 16.479 16.2107 16.494 17.1945C17.8541 15.9801 18.8132 14.3812 19.2444 12.6095C19.6755 10.8378 19.5584 8.97701 18.9085 7.27339C18.2586 5.56978 17.1066 4.10375 15.605 3.06942C14.1034 2.0351 12.323 1.48127 10.4996 1.48127C8.67625 1.48127 6.89589 2.0351 5.39427 3.06942C3.89266 4.10375 2.74063 5.56978 2.09072 7.27339C1.44082 8.97701 1.3237 10.8378 1.75487 12.6095C2.18604 14.3812 3.14517 15.9801 4.50525 17.1945H4.50599Z" fill="#000000"/>
</svg>
