<svg width="21" height="21" viewBox="0 0 21 21" fill="none" xmlns="http://www.w3.org/2000/svg">
<path fill-rule="evenodd" clip-rule="evenodd" d="M3.5 5.83301C3.5 5.36888 3.31562 4.92376 2.98744 4.59557C2.65925 4.26738 2.21413 4.08301 1.75 4.08301C1.28587 4.08301 0.840753 4.26738 0.512564 4.59557C0.184376 4.92376 0 5.36888 0 5.83301V17.6764L1.75 20.3014L3.5 17.6764V5.83301ZM1.75 5.24967C1.90471 5.24967 2.05308 5.31113 2.16248 5.42053C2.27188 5.52993 2.33333 5.6783 2.33333 5.83301V17.3229L1.75 18.1979L1.16667 17.3229V5.83301C1.16667 5.6783 1.22812 5.52993 1.33752 5.42053C1.44692 5.31113 1.59529 5.24967 1.75 5.24967Z" fill="#000000"/>
<path fill-rule="evenodd" clip-rule="evenodd" d="M0.583332 8.16667H2.91667V7H0.583332V8.16667ZM18.6667 1.16667C18.9761 1.16667 19.2728 1.28958 19.4916 1.50838C19.7104 1.72717 19.8333 2.02391 19.8333 2.33333V18.6667C19.8333 18.9761 19.7104 19.2728 19.4916 19.4916C19.2728 19.7104 18.9761 19.8333 18.6667 19.8333H7C6.69058 19.8333 6.39383 19.7104 6.17504 19.4916C5.95625 19.2728 5.83333 18.9761 5.83333 18.6667V2.33333C5.83333 2.02391 5.95625 1.72717 6.17504 1.50838C6.39383 1.28958 6.69058 1.16667 7 1.16667H18.6667ZM21 2.33333C21 1.71449 20.7542 1.121 20.3166 0.683417C19.879 0.245833 19.2855 0 18.6667 0H7C6.38116 0 5.78767 0.245833 5.35008 0.683417C4.9125 1.121 4.66667 1.71449 4.66667 2.33333V18.6667C4.66667 19.2855 4.9125 19.879 5.35008 20.3166C5.78767 20.7542 6.38116 21 7 21H18.6667C19.2855 21 19.879 20.7542 20.3166 20.3166C20.7542 19.879 21 19.2855 21 18.6667V2.33333Z" fill="#000000"/>
<path fill-rule="evenodd" clip-rule="evenodd" d="M12.8333 5.25033C12.8333 5.09562 12.7719 4.94724 12.6625 4.83785C12.5531 4.72845 12.4047 4.66699 12.25 4.66699H7.58333C7.42862 4.66699 7.28024 4.72845 7.17085 4.83785C7.06145 4.94724 6.99999 5.09562 6.99999 5.25033C6.99999 5.40504 7.06145 5.55341 7.17085 5.6628C7.28024 5.7722 7.42862 5.83366 7.58333 5.83366H12.25C12.4047 5.83366 12.5531 5.7722 12.6625 5.6628C12.7719 5.55341 12.8333 5.40504 12.8333 5.25033ZM12.8333 7.58366C12.8333 7.42895 12.7719 7.28058 12.6625 7.17118C12.5531 7.06178 12.4047 7.00033 12.25 7.00033H7.58333C7.42862 7.00033 7.28024 7.06178 7.17085 7.17118C7.06145 7.28058 6.99999 7.42895 6.99999 7.58366C6.99999 7.73837 7.06145 7.88674 7.17085 7.99614C7.28024 8.10553 7.42862 8.16699 7.58333 8.16699H12.25C12.4047 8.16699 12.5531 8.10553 12.6625 7.99614C12.7719 7.88674 12.8333 7.73837 12.8333 7.58366ZM12.8333 12.8337C12.8333 12.6789 12.7719 12.5306 12.6625 12.4212C12.5531 12.3118 12.4047 12.2503 12.25 12.2503H7.58333C7.42862 12.2503 7.28024 12.3118 7.17085 12.4212C7.06145 12.5306 6.99999 12.6789 6.99999 12.8337C6.99999 12.9884 7.06145 13.1367 7.17085 13.2461C7.28024 13.3555 7.42862 13.417 7.58333 13.417H12.25C12.4047 13.417 12.5531 13.3555 12.6625 13.2461C12.7719 13.1367 12.8333 12.9884 12.8333 12.8337ZM12.8333 15.167C12.8333 15.0123 12.7719 14.8639 12.6625 14.7545C12.5531 14.6451 12.4047 14.5837 12.25 14.5837H7.58333C7.42862 14.5837 7.28024 14.6451 7.17085 14.7545C7.06145 14.8639 6.99999 15.0123 6.99999 15.167C6.99999 15.3217 7.06145 15.4701 7.17085 15.5795C7.28024 15.6889 7.42862 15.7503 7.58333 15.7503H12.25C12.4047 15.7503 12.5531 15.6889 12.6625 15.5795C12.7719 15.4701 12.8333 15.3217 12.8333 15.167ZM17.5 12.8337V14.5837H15.75V12.8337H17.5ZM18.0833 11.667H15.1667C15.012 11.667 14.8636 11.7285 14.7542 11.8378C14.6448 11.9472 14.5833 12.0956 14.5833 12.2503V15.167C14.5833 15.3217 14.6448 15.4701 14.7542 15.5795C14.8636 15.6889 15.012 15.7503 15.1667 15.7503H18.0833C18.238 15.7503 18.3864 15.6889 18.4958 15.5795C18.6052 15.4701 18.6667 15.3217 18.6667 15.167V12.2503C18.6667 12.0956 18.6052 11.9472 18.4958 11.8378C18.3864 11.7285 18.238 11.667 18.0833 11.667ZM14.1709 4.83791C14.0616 4.9473 14.0001 5.09565 14.0001 5.25033C14.0001 5.405 14.0616 5.55335 14.1709 5.66274L16.9167 8.40849L18.4957 6.82941C18.5515 6.7756 18.5959 6.71123 18.6265 6.64006C18.657 6.56889 18.6731 6.49235 18.6738 6.41489C18.6745 6.33744 18.6597 6.26063 18.6304 6.18894C18.6011 6.11725 18.5577 6.05212 18.503 5.99735C18.4482 5.94257 18.3831 5.89926 18.3114 5.86993C18.2397 5.8406 18.1629 5.82584 18.0854 5.82651C18.008 5.82719 17.9314 5.84328 17.8603 5.87385C17.7891 5.90442 17.7247 5.94886 17.6709 6.00458L16.9167 6.75883L14.9957 4.83791C14.8864 4.72855 14.738 4.66712 14.5833 4.66712C14.4286 4.66712 14.2803 4.72855 14.1709 4.83791Z" fill="#000000"/>
</svg>
